<svg width="162" height="44" viewBox="0 0 162 44" fill="none" xmlns="http://www.w3.org/2000/svg">
<rect x="0.5" y="0.5" width="43" height="43" rx="5.5" stroke="#E6E7E8"/>
<path d="M26.4768 13.3485L20.2039 9.55509C19.6118 9.19292 18.9387 9.0015 18.2531 9.00031C16.2093 9.00031 14.3346 10.7122 14.3346 13.105V27.3073L26.4768 19.9669C28.9081 18.4947 28.9081 14.82 26.4768 13.3485ZM17.8483 20.448V12.8679L24.1162 16.6567L17.8483 20.448Z" fill="#0E1422"/>
<path d="M29.8488 34.9844C29.8488 35.0273 17.9907 34.966 17.9907 34.966L16.9432 34.8425C15.2466 34.644 13.9441 33.1233 14.0018 31.3346C14.0018 31.2917 14.0055 31.2519 14.008 31.2103C14.0546 30.4365 14.326 29.6961 14.7857 29.0885C14.9724 28.8461 15.2008 28.6425 15.459 28.4882L24.478 23.0725C26.3413 21.9535 27.893 21.562 28.6998 19.5341C28.9973 18.7757 29.1258 17.9562 29.0756 17.1379L29.0444 16.5865L29.965 21.9204C30.0829 22.8264 29.9012 23.7537 29.421 24.5169C29.1325 24.9785 28.7474 25.3653 28.295 25.6479L17.8294 30.8943C17.819 30.9006 17.8088 30.9074 17.7991 30.9149C17.5126 31.1293 17.6894 31.6069 18.0402 31.5867L26.7514 31.6403C28.4431 31.5417 29.8524 33.2112 29.8488 34.9844Z" fill="#0E1422"/>
<path d="M61.4 29.5V15.1H63.84L68.6 24.66L73.36 15.1H75.8V29.5H73.26V20.9L69.08 29.5H68.12L63.94 20.9V29.5H61.4ZM83.347 29.8C82.2804 29.8 81.317 29.6133 80.457 29.24C79.6037 28.86 78.9004 28.32 78.347 27.62C77.8004 26.9133 77.4537 26.0733 77.307 25.1L80.147 24.68C80.347 25.5067 80.7604 26.1433 81.387 26.59C82.0137 27.0367 82.727 27.26 83.527 27.26C83.9737 27.26 84.407 27.19 84.827 27.05C85.247 26.91 85.5904 26.7033 85.857 26.43C86.1304 26.1567 86.267 25.82 86.267 25.42C86.267 25.2733 86.2437 25.1333 86.197 25C86.157 24.86 86.087 24.73 85.987 24.61C85.887 24.49 85.7437 24.3767 85.557 24.27C85.377 24.1633 85.147 24.0667 84.867 23.98L81.127 22.88C80.847 22.8 80.5204 22.6867 80.147 22.54C79.7804 22.3933 79.4237 22.1833 79.077 21.91C78.7304 21.6367 78.4404 21.2767 78.207 20.83C77.9804 20.3767 77.867 19.8067 77.867 19.12C77.867 18.1533 78.1104 17.35 78.597 16.71C79.0837 16.07 79.7337 15.5933 80.547 15.28C81.3604 14.9667 82.2604 14.8133 83.247 14.82C84.2404 14.8333 85.127 15.0033 85.907 15.33C86.687 15.6567 87.3404 16.1333 87.867 16.76C88.3937 17.38 88.7737 18.14 89.007 19.04L86.067 19.54C85.9604 19.0733 85.7637 18.68 85.477 18.36C85.1904 18.04 84.847 17.7967 84.447 17.63C84.0537 17.4633 83.6404 17.3733 83.207 17.36C82.7804 17.3467 82.377 17.4067 81.997 17.54C81.6237 17.6667 81.317 17.8533 81.077 18.1C80.8437 18.3467 80.727 18.64 80.727 18.98C80.727 19.2933 80.8237 19.55 81.017 19.75C81.2104 19.9433 81.4537 20.1 81.747 20.22C82.0404 20.34 82.3404 20.44 82.647 20.52L85.147 21.2C85.5204 21.3 85.9337 21.4333 86.387 21.6C86.8404 21.76 87.2737 21.9867 87.687 22.28C88.107 22.5667 88.4504 22.9467 88.717 23.42C88.9904 23.8933 89.127 24.4933 89.127 25.22C89.127 25.9933 88.9637 26.67 88.637 27.25C88.317 27.8233 87.8837 28.3 87.337 28.68C86.7904 29.0533 86.1704 29.3333 85.477 29.52C84.7904 29.7067 84.0804 29.8 83.347 29.8ZM96.805 29.8C95.365 29.8 94.1217 29.4867 93.075 28.86C92.035 28.2333 91.2317 27.3567 90.665 26.23C90.105 25.1033 89.825 23.7933 89.825 22.3C89.825 20.8067 90.105 19.4967 90.665 18.37C91.2317 17.2433 92.035 16.3667 93.075 15.74C94.1217 15.1133 95.365 14.8 96.805 14.8C98.4583 14.8 99.845 15.21 100.965 16.03C102.092 16.85 102.885 17.96 103.345 19.36L100.605 20.12C100.338 19.2467 99.8883 18.57 99.255 18.09C98.6217 17.6033 97.805 17.36 96.805 17.36C95.8917 17.36 95.1283 17.5633 94.515 17.97C93.9083 18.3767 93.4517 18.95 93.145 19.69C92.8383 20.43 92.685 21.3 92.685 22.3C92.685 23.3 92.8383 24.17 93.145 24.91C93.4517 25.65 93.9083 26.2233 94.515 26.63C95.1283 27.0367 95.8917 27.24 96.805 27.24C97.805 27.24 98.6217 26.9967 99.255 26.51C99.8883 26.0233 100.338 25.3467 100.605 24.48L103.345 25.24C102.885 26.64 102.092 27.75 100.965 28.57C99.845 29.39 98.4583 29.8 96.805 29.8ZM112.207 29.5V24.4C112.207 24.1533 112.194 23.84 112.167 23.46C112.14 23.0733 112.057 22.6867 111.917 22.3C111.777 21.9133 111.547 21.59 111.227 21.33C110.914 21.07 110.467 20.94 109.887 20.94C109.654 20.94 109.404 20.9767 109.137 21.05C108.87 21.1233 108.62 21.2667 108.387 21.48C108.154 21.6867 107.96 21.9933 107.807 22.4C107.66 22.8067 107.587 23.3467 107.587 24.02L106.027 23.28C106.027 22.4267 106.2 21.6267 106.547 20.88C106.894 20.1333 107.414 19.53 108.107 19.07C108.807 18.61 109.687 18.38 110.747 18.38C111.594 18.38 112.284 18.5233 112.817 18.81C113.35 19.0967 113.764 19.46 114.057 19.9C114.357 20.34 114.57 20.8 114.697 21.28C114.824 21.7533 114.9 22.1867 114.927 22.58C114.954 22.9733 114.967 23.26 114.967 23.44V29.5H112.207ZM104.827 29.5V15.1H107.247V22.5H107.587V29.5H104.827ZM121.722 29.8C120.635 29.8 119.682 29.5567 118.862 29.07C118.042 28.5833 117.402 27.9133 116.942 27.06C116.488 26.2 116.262 25.2133 116.262 24.1C116.262 22.9733 116.495 21.9833 116.962 21.13C117.428 20.27 118.072 19.6 118.892 19.12C119.712 18.64 120.655 18.4 121.722 18.4C122.808 18.4 123.762 18.6433 124.582 19.13C125.408 19.6167 126.052 20.29 126.512 21.15C126.972 22.0033 127.202 22.9867 127.202 24.1C127.202 25.22 126.968 26.21 126.502 27.07C126.042 27.9233 125.398 28.5933 124.572 29.08C123.752 29.56 122.802 29.8 121.722 29.8ZM121.722 27.26C122.595 27.26 123.245 26.9667 123.672 26.38C124.105 25.7867 124.322 25.0267 124.322 24.1C124.322 23.14 124.102 22.3733 123.662 21.8C123.228 21.2267 122.582 20.94 121.722 20.94C121.128 20.94 120.642 21.0733 120.262 21.34C119.882 21.6067 119.598 21.9767 119.412 22.45C119.232 22.9233 119.142 23.4733 119.142 24.1C119.142 25.0667 119.358 25.8367 119.792 26.41C120.232 26.9767 120.875 27.26 121.722 27.26ZM133.561 29.8C132.474 29.8 131.521 29.5567 130.701 29.07C129.881 28.5833 129.241 27.9133 128.781 27.06C128.327 26.2 128.101 25.2133 128.101 24.1C128.101 22.9733 128.334 21.9833 128.801 21.13C129.267 20.27 129.911 19.6 130.731 19.12C131.551 18.64 132.494 18.4 133.561 18.4C134.647 18.4 135.601 18.6433 136.421 19.13C137.247 19.6167 137.891 20.29 138.351 21.15C138.811 22.0033 139.041 22.9867 139.041 24.1C139.041 25.22 138.807 26.21 138.341 27.07C137.881 27.9233 137.237 28.5933 136.411 29.08C135.591 29.56 134.641 29.8 133.561 29.8ZM133.561 27.26C134.434 27.26 135.084 26.9667 135.511 26.38C135.944 25.7867 136.161 25.0267 136.161 24.1C136.161 23.14 135.941 22.3733 135.501 21.8C135.067 21.2267 134.421 20.94 133.561 20.94C132.967 20.94 132.481 21.0733 132.101 21.34C131.721 21.6067 131.437 21.9767 131.251 22.45C131.071 22.9233 130.981 23.4733 130.981 24.1C130.981 25.0667 131.197 25.8367 131.631 26.41C132.071 26.9767 132.714 27.26 133.561 27.26ZM144.467 29.8C143.107 29.8 142.007 29.4933 141.167 28.88C140.334 28.26 139.827 27.3867 139.647 26.26L142.427 25.84C142.54 26.3467 142.79 26.7433 143.177 27.03C143.57 27.3167 144.067 27.46 144.667 27.46C145.16 27.46 145.54 27.3667 145.807 27.18C146.074 26.9867 146.207 26.72 146.207 26.38C146.207 26.1667 146.154 25.9967 146.047 25.87C145.94 25.7367 145.7 25.6067 145.327 25.48C144.96 25.3533 144.387 25.1867 143.607 24.98C142.727 24.7533 142.024 24.5 141.497 24.22C140.97 23.94 140.59 23.6067 140.357 23.22C140.124 22.8267 140.007 22.3533 140.007 21.8C140.007 21.1067 140.184 20.5067 140.537 20C140.89 19.4867 141.387 19.0933 142.027 18.82C142.674 18.54 143.434 18.4 144.307 18.4C145.154 18.4 145.904 18.53 146.557 18.79C147.21 19.05 147.737 19.42 148.137 19.9C148.544 20.38 148.794 20.9467 148.887 21.6L146.107 22.1C146.06 21.7 145.887 21.3833 145.587 21.15C145.287 20.9167 144.88 20.78 144.367 20.74C143.867 20.7067 143.464 20.7733 143.157 20.94C142.857 21.1067 142.707 21.3467 142.707 21.66C142.707 21.8467 142.77 22.0033 142.897 22.13C143.03 22.2567 143.3 22.3867 143.707 22.52C144.12 22.6533 144.747 22.8267 145.587 23.04C146.407 23.2533 147.064 23.5033 147.557 23.79C148.057 24.07 148.42 24.41 148.647 24.81C148.874 25.2033 148.987 25.68 148.987 26.24C148.987 27.3467 148.587 28.2167 147.787 28.85C146.987 29.4833 145.88 29.8 144.467 29.8ZM155.504 29.8C154.398 29.8 153.421 29.5633 152.574 29.09C151.734 28.61 151.074 27.9533 150.594 27.12C150.121 26.28 149.884 25.32 149.884 24.24C149.884 23.06 150.118 22.0333 150.584 21.16C151.051 20.2867 151.694 19.61 152.514 19.13C153.334 18.6433 154.278 18.4 155.344 18.4C156.478 18.4 157.441 18.6667 158.234 19.2C159.028 19.7333 159.614 20.4833 159.994 21.45C160.374 22.4167 160.508 23.5533 160.394 24.86H157.704V23.86C157.704 22.76 157.528 21.97 157.174 21.49C156.828 21.0033 156.258 20.76 155.464 20.76C154.538 20.76 153.854 21.0433 153.414 21.61C152.981 22.17 152.764 23 152.764 24.1C152.764 25.1067 152.981 25.8867 153.414 26.44C153.854 26.9867 154.498 27.26 155.344 27.26C155.878 27.26 156.334 27.1433 156.714 26.91C157.094 26.6767 157.384 26.34 157.584 25.9L160.304 26.68C159.898 27.6667 159.254 28.4333 158.374 28.98C157.501 29.5267 156.544 29.8 155.504 29.8ZM151.924 24.86V22.84H159.084V24.86H151.924Z" fill="#0E1422"/>
</svg>
